<svg width="35" height="39" viewBox="0 0 35 39" fill="none" xmlns="http://www.w3.org/2000/svg">
<path d="M16.75 20.2988H13.25C12.1454 20.2988 11.25 19.4034 11.25 18.2988V7.79883C11.25 6.69426 12.1454 5.79883 13.25 5.79883H19.5L23.75 10.0488V12.2988" stroke="#DA0175" stroke-width="1.5" stroke-linecap="round" stroke-linejoin="round"/>
<path d="M22.5 15.7988V20.2988" stroke="#DA0175" stroke-width="1.5" stroke-linecap="round" stroke-linejoin="round"/>
<path d="M24.75 18.0488H20.25" stroke="#DA0175" stroke-width="1.5" stroke-linecap="round" stroke-linejoin="round"/>
<path d="M23.5 10.2988H19.25V6.04883" stroke="#DA0175" stroke-width="1.5" stroke-linecap="round" stroke-linejoin="round"/>
<path d="M8.184 33.072C7.61333 33.072 7.12533 32.9547 6.72 32.72C6.31467 32.4853 6.00267 32.152 5.784 31.72C5.57067 31.2827 5.464 30.768 5.464 30.176C5.464 29.7333 5.52533 29.336 5.648 28.984C5.77067 28.6267 5.94667 28.3227 6.176 28.072C6.41067 27.816 6.696 27.6213 7.032 27.488C7.37333 27.3547 7.75733 27.288 8.184 27.288C8.49867 27.288 8.8 27.3307 9.088 27.416C9.38133 27.5013 9.63467 27.624 9.848 27.784C9.93867 27.8427 9.99733 27.9147 10.024 28C10.056 28.08 10.0613 28.1573 10.04 28.232C10.024 28.3067 9.98933 28.3707 9.936 28.424C9.88267 28.472 9.81333 28.4987 9.728 28.504C9.648 28.5093 9.56 28.48 9.464 28.416C9.288 28.2827 9.09333 28.184 8.88 28.12C8.66667 28.056 8.44267 28.024 8.208 28.024C7.80267 28.024 7.46133 28.1093 7.184 28.28C6.90667 28.4453 6.696 28.688 6.552 29.008C6.408 29.328 6.336 29.7173 6.336 30.176C6.336 30.6347 6.408 31.0267 6.552 31.352C6.696 31.672 6.90667 31.9173 7.184 32.088C7.46133 32.2533 7.80267 32.336 8.208 32.336C8.44267 32.336 8.66667 32.304 8.88 32.24C9.09867 32.1707 9.304 32.0693 9.496 31.936C9.592 31.8773 9.67733 31.8507 9.752 31.856C9.832 31.8613 9.89867 31.888 9.952 31.936C10.0053 31.984 10.04 32.0453 10.056 32.12C10.0773 32.1893 10.0747 32.264 10.048 32.344C10.0267 32.4187 9.976 32.4827 9.896 32.536C9.67733 32.712 9.41867 32.8453 9.12 32.936C8.82133 33.0267 8.50933 33.072 8.184 33.072ZM11.3743 33.056C11.2463 33.056 11.1476 33.0213 11.0783 32.952C11.0089 32.8773 10.9743 32.776 10.9743 32.648V27.712C10.9743 27.5787 11.0089 27.4773 11.0783 27.408C11.1476 27.3387 11.2463 27.304 11.3743 27.304C11.5023 27.304 11.6009 27.3387 11.6703 27.408C11.7449 27.4773 11.7823 27.5787 11.7823 27.712V29.928H11.6703C11.7876 29.6293 11.9716 29.4053 12.2223 29.256C12.4729 29.1013 12.7609 29.024 13.0863 29.024C13.3956 29.024 13.6516 29.0827 13.8543 29.2C14.0623 29.312 14.2169 29.4853 14.3183 29.72C14.4196 29.9493 14.4703 30.24 14.4703 30.592V32.648C14.4703 32.776 14.4356 32.8773 14.3663 32.952C14.2969 33.0213 14.1983 33.056 14.0703 33.056C13.9369 33.056 13.8356 33.0213 13.7663 32.952C13.6969 32.8773 13.6623 32.776 13.6623 32.648V30.64C13.6623 30.304 13.5956 30.0587 13.4623 29.904C13.3343 29.7493 13.1316 29.672 12.8543 29.672C12.5289 29.672 12.2676 29.7733 12.0703 29.976C11.8783 30.1787 11.7823 30.4507 11.7823 30.792V32.648C11.7823 32.92 11.6463 33.056 11.3743 33.056ZM16.8316 33.072C16.5596 33.072 16.3143 33.0187 16.0956 32.912C15.8823 32.8053 15.7143 32.6613 15.5916 32.48C15.469 32.2987 15.4076 32.0933 15.4076 31.864C15.4076 31.576 15.4796 31.3493 15.6236 31.184C15.773 31.0133 16.0156 30.8933 16.3516 30.824C16.693 30.7493 17.1516 30.712 17.7276 30.712H18.1036V31.208H17.7356C17.3516 31.208 17.0476 31.2267 16.8236 31.264C16.5996 31.3013 16.4396 31.3653 16.3436 31.456C16.253 31.5413 16.2076 31.6613 16.2076 31.816C16.2076 32.0187 16.277 32.184 16.4156 32.312C16.5543 32.4347 16.7463 32.496 16.9916 32.496C17.189 32.496 17.3623 32.4507 17.5116 32.36C17.661 32.264 17.7783 32.136 17.8636 31.976C17.9543 31.816 17.9996 31.632 17.9996 31.424V30.504C17.9996 30.2 17.9356 29.9813 17.8076 29.848C17.6796 29.7147 17.469 29.648 17.1756 29.648C17.005 29.648 16.8263 29.6693 16.6396 29.712C16.4583 29.7547 16.269 29.8267 16.0716 29.928C15.981 29.9707 15.9036 29.984 15.8396 29.968C15.7756 29.952 15.725 29.9173 15.6876 29.864C15.6503 29.8053 15.629 29.744 15.6236 29.68C15.6236 29.6107 15.6396 29.544 15.6716 29.48C15.709 29.416 15.7703 29.368 15.8556 29.336C16.0903 29.224 16.3223 29.144 16.5516 29.096C16.781 29.048 16.997 29.024 17.1996 29.024C17.557 29.024 17.8503 29.08 18.0796 29.192C18.3143 29.304 18.4876 29.4747 18.5996 29.704C18.7116 29.9333 18.7676 30.2293 18.7676 30.592V32.648C18.7676 32.776 18.7356 32.8773 18.6716 32.952C18.6076 33.0213 18.5143 33.056 18.3916 33.056C18.2743 33.056 18.181 33.0213 18.1116 32.952C18.0423 32.8773 18.0076 32.776 18.0076 32.648V32.128H18.0796C18.037 32.3253 17.957 32.496 17.8396 32.64C17.7276 32.7787 17.5863 32.8853 17.4156 32.96C17.245 33.0347 17.0503 33.072 16.8316 33.072ZM20.2885 33.056C20.1552 33.056 20.0538 33.0213 19.9845 32.952C19.9152 32.8773 19.8805 32.776 19.8805 32.648V29.448C19.8805 29.3147 19.9152 29.2133 19.9845 29.144C20.0538 29.0747 20.1498 29.04 20.2725 29.04C20.4005 29.04 20.4965 29.0747 20.5605 29.144C20.6298 29.2133 20.6645 29.3147 20.6645 29.448V30.032H20.5845C20.6698 29.712 20.8272 29.4693 21.0565 29.304C21.2858 29.1387 21.5792 29.0427 21.9365 29.016C22.0325 29.0107 22.1072 29.0347 22.1605 29.088C22.2192 29.1413 22.2512 29.224 22.2565 29.336C22.2672 29.448 22.2432 29.5387 22.1845 29.608C22.1258 29.672 22.0352 29.7093 21.9125 29.72L21.7605 29.736C21.4138 29.768 21.1498 29.8773 20.9685 30.064C20.7872 30.2507 20.6965 30.5067 20.6965 30.832V32.648C20.6965 32.776 20.6618 32.8773 20.5925 32.952C20.5285 33.0213 20.4272 33.056 20.2885 33.056ZM24.5782 34.512C24.2902 34.512 24.0102 34.4827 23.7382 34.424C23.4715 34.3653 23.2289 34.2693 23.0102 34.136C22.9302 34.0933 22.8769 34.04 22.8502 33.976C22.8235 33.9173 22.8155 33.856 22.8262 33.792C22.8422 33.728 22.8715 33.672 22.9142 33.624C22.9569 33.576 23.0075 33.544 23.0662 33.528C23.1302 33.512 23.1969 33.5227 23.2662 33.56C23.5009 33.688 23.7222 33.7733 23.9302 33.816C24.1435 33.864 24.3409 33.888 24.5222 33.888C24.8955 33.888 25.1755 33.792 25.3622 33.6C25.5489 33.4133 25.6422 33.136 25.6422 32.768V31.952H25.7142C25.6342 32.2453 25.4662 32.4773 25.2102 32.648C24.9542 32.8187 24.6582 32.904 24.3222 32.904C23.9702 32.904 23.6635 32.824 23.4022 32.664C23.1409 32.4987 22.9382 32.272 22.7942 31.984C22.6502 31.6907 22.5782 31.3493 22.5782 30.96C22.5782 30.6667 22.6182 30.4027 22.6982 30.168C22.7835 29.9333 22.9009 29.7307 23.0502 29.56C23.2049 29.3893 23.3889 29.2587 23.6022 29.168C23.8209 29.072 24.0609 29.024 24.3222 29.024C24.6635 29.024 24.9595 29.1093 25.2102 29.28C25.4662 29.4507 25.6315 29.6827 25.7062 29.976L25.6262 30.112V29.448C25.6262 29.3147 25.6609 29.2133 25.7302 29.144C25.8049 29.0747 25.9035 29.04 26.0262 29.04C26.1542 29.04 26.2529 29.0747 26.3222 29.144C26.3915 29.2133 26.4262 29.3147 26.4262 29.448V32.672C26.4262 33.28 26.2689 33.7387 25.9542 34.048C25.6395 34.3573 25.1809 34.512 24.5782 34.512ZM24.5142 32.272C24.7489 32.272 24.9489 32.2187 25.1142 32.112C25.2795 32.0053 25.4075 31.8533 25.4982 31.656C25.5889 31.4587 25.6342 31.2267 25.6342 30.96C25.6342 30.56 25.5329 30.2427 25.3302 30.008C25.1329 29.7733 24.8609 29.656 24.5142 29.656C24.2849 29.656 24.0875 29.7093 23.9222 29.816C23.7569 29.9227 23.6262 30.0747 23.5302 30.272C23.4395 30.464 23.3942 30.6933 23.3942 30.96C23.3942 31.3653 23.4955 31.6853 23.6982 31.92C23.9009 32.1547 24.1729 32.272 24.5142 32.272ZM29.3922 33.072C28.9655 33.072 28.5975 32.992 28.2882 32.832C27.9842 32.6667 27.7469 32.4347 27.5762 32.136C27.4109 31.832 27.3282 31.472 27.3282 31.056C27.3282 30.6507 27.4109 30.296 27.5762 29.992C27.7415 29.688 27.9682 29.4507 28.2562 29.28C28.5442 29.1093 28.8722 29.024 29.2402 29.024C29.5122 29.024 29.7549 29.0693 29.9682 29.16C30.1815 29.2453 30.3629 29.3733 30.5122 29.544C30.6669 29.7093 30.7815 29.912 30.8562 30.152C30.9362 30.392 30.9762 30.6613 30.9762 30.96C30.9762 31.0507 30.9495 31.12 30.8962 31.168C30.8429 31.2107 30.7629 31.232 30.6562 31.232H27.9682V30.736H30.4322L30.2962 30.848C30.2962 30.5813 30.2562 30.3547 30.1762 30.168C30.1015 29.9813 29.9869 29.84 29.8322 29.744C29.6829 29.6427 29.4962 29.592 29.2722 29.592C29.0215 29.592 28.8082 29.6507 28.6322 29.768C28.4615 29.8853 28.3309 30.048 28.2402 30.256C28.1495 30.464 28.1042 30.7067 28.1042 30.984V31.032C28.1042 31.5013 28.2135 31.856 28.4322 32.096C28.6562 32.3307 28.9789 32.448 29.4002 32.448C29.5602 32.448 29.7282 32.4267 29.9042 32.384C30.0855 32.3413 30.2562 32.2693 30.4162 32.168C30.5069 32.1147 30.5869 32.0907 30.6562 32.096C30.7309 32.1013 30.7895 32.1253 30.8322 32.168C30.8802 32.2107 30.9095 32.264 30.9202 32.328C30.9309 32.392 30.9202 32.4587 30.8882 32.528C30.8562 32.592 30.8002 32.6507 30.7202 32.704C30.5389 32.8267 30.3282 32.92 30.0882 32.984C29.8482 33.0427 29.6162 33.072 29.3922 33.072Z" fill="#DA0175"/>
</svg>
