<svg width="22" height="32" viewBox="0 0 22 32" fill="none" xmlns="http://www.w3.org/2000/svg">
<mask id="mask0_203_19" style="mask-type:luminance" maskUnits="userSpaceOnUse" x="3" y="0" width="16" height="17">
<path d="M19 0.548828H3V16.5488H19V0.548828Z" fill="white"/>
</mask>
<g mask="url(#mask0_203_19)">
<path d="M3.75 15.7987L8 14.7987L17.2929 5.50579C17.6834 5.11526 17.6834 4.4821 17.2929 4.09157L15.4571 2.25579C15.0666 1.86526 14.4334 1.86526 14.0429 2.25579L4.75 11.5487L3.75 15.7987Z" stroke="#747488" stroke-width="1.5" stroke-linecap="round" stroke-linejoin="round"/>
<path d="M18.25 15.7988H12.75" stroke="#747488" stroke-width="1.5" stroke-linecap="round" stroke-linejoin="round"/>
</g>
<path d="M4.104 29C3.96 29 3.848 28.9627 3.768 28.888C3.69333 28.808 3.656 28.696 3.656 28.552V23.808C3.656 23.664 3.69333 23.5547 3.768 23.48C3.848 23.4 3.96 23.36 4.104 23.36H7.024C7.136 23.36 7.22133 23.3893 7.28 23.448C7.33867 23.5013 7.368 23.5813 7.368 23.688C7.368 23.8 7.33867 23.8853 7.28 23.944C7.22133 24.0027 7.136 24.032 7.024 24.032H4.456V25.8H6.848C6.96533 25.8 7.05067 25.8293 7.104 25.888C7.16267 25.9467 7.192 26.0293 7.192 26.136C7.192 26.248 7.16267 26.3333 7.104 26.392C7.05067 26.4453 6.96533 26.472 6.848 26.472H4.456V28.328H7.024C7.136 28.328 7.22133 28.3573 7.28 28.416C7.33867 28.4747 7.368 28.5573 7.368 28.664C7.368 28.776 7.33867 28.8613 7.28 28.92C7.22133 28.9733 7.136 29 7.024 29H4.104ZM9.73569 29.072C9.39435 29.072 9.09302 28.992 8.83169 28.832C8.57569 28.6667 8.37569 28.432 8.23169 28.128C8.08769 27.8187 8.01569 27.4587 8.01569 27.048C8.01569 26.6267 8.08769 26.2667 8.23169 25.968C8.37569 25.6693 8.57569 25.4373 8.83169 25.272C9.09302 25.1067 9.39435 25.024 9.73569 25.024C10.077 25.024 10.3704 25.1093 10.6157 25.28C10.8664 25.4453 11.0344 25.6693 11.1197 25.952H11.0317V23.712C11.0317 23.5787 11.0664 23.4773 11.1357 23.408C11.205 23.3387 11.3037 23.304 11.4317 23.304C11.5597 23.304 11.6584 23.3387 11.7277 23.408C11.8024 23.4773 11.8397 23.5787 11.8397 23.712V28.648C11.8397 28.776 11.805 28.8773 11.7357 28.952C11.6664 29.0213 11.5677 29.056 11.4397 29.056C11.3117 29.056 11.213 29.0213 11.1437 28.952C11.0744 28.8773 11.0397 28.776 11.0397 28.648V27.944L11.1277 28.12C11.0424 28.408 10.8744 28.64 10.6237 28.816C10.3784 28.9867 10.0824 29.072 9.73569 29.072ZM9.94369 28.448C10.1624 28.448 10.3544 28.3947 10.5197 28.288C10.685 28.1813 10.813 28.024 10.9037 27.816C10.9997 27.608 11.0477 27.352 11.0477 27.048C11.0477 26.5893 10.9464 26.2427 10.7437 26.008C10.541 25.7733 10.2744 25.656 9.94369 25.656C9.71969 25.656 9.52502 25.7093 9.35969 25.816C9.19435 25.9173 9.06369 26.072 8.96769 26.28C8.87702 26.488 8.83169 26.744 8.83169 27.048C8.83169 27.5013 8.93302 27.848 9.13569 28.088C9.33835 28.328 9.60769 28.448 9.94369 28.448ZM13.3743 29.048C13.2463 29.048 13.1476 29.0107 13.0783 28.936C13.0089 28.856 12.9743 28.7467 12.9743 28.608V25.488C12.9743 25.3493 13.0089 25.2427 13.0783 25.168C13.1476 25.0933 13.2463 25.056 13.3743 25.056C13.5023 25.056 13.6009 25.0933 13.6703 25.168C13.7449 25.2427 13.7823 25.3493 13.7823 25.488V28.608C13.7823 28.7467 13.7476 28.856 13.6783 28.936C13.6089 29.0107 13.5076 29.048 13.3743 29.048ZM13.3743 24.224C13.2143 24.224 13.0889 24.184 12.9983 24.104C12.9129 24.024 12.8703 23.912 12.8703 23.768C12.8703 23.6187 12.9129 23.5067 12.9983 23.432C13.0889 23.352 13.2143 23.312 13.3743 23.312C13.5343 23.312 13.6569 23.352 13.7423 23.432C13.8329 23.5067 13.8783 23.6187 13.8783 23.768C13.8783 23.912 13.8329 24.024 13.7423 24.104C13.6569 24.184 13.5343 24.224 13.3743 24.224ZM16.5836 29.072C16.2636 29.072 15.9942 29.016 15.7756 28.904C15.5569 28.792 15.3942 28.6267 15.2876 28.408C15.1809 28.1893 15.1276 27.9227 15.1276 27.608V25.72H14.6476C14.5409 25.72 14.4582 25.6933 14.3996 25.64C14.3409 25.5813 14.3116 25.504 14.3116 25.408C14.3116 25.3067 14.3409 25.2293 14.3996 25.176C14.4582 25.1227 14.5409 25.096 14.6476 25.096H15.1276V24.272C15.1276 24.1387 15.1622 24.0373 15.2316 23.968C15.3062 23.8987 15.4076 23.864 15.5356 23.864C15.6636 23.864 15.7622 23.8987 15.8316 23.968C15.9009 24.0373 15.9356 24.1387 15.9356 24.272V25.096H16.8716C16.9782 25.096 17.0609 25.1227 17.1196 25.176C17.1782 25.2293 17.2076 25.3067 17.2076 25.408C17.2076 25.504 17.1782 25.5813 17.1196 25.64C17.0609 25.6933 16.9782 25.72 16.8716 25.72H15.9356V27.544C15.9356 27.8267 15.9942 28.04 16.1116 28.184C16.2342 28.328 16.4316 28.4 16.7036 28.4C16.7996 28.4 16.8822 28.392 16.9516 28.376C17.0262 28.3547 17.0876 28.3413 17.1356 28.336C17.1942 28.336 17.2422 28.3573 17.2796 28.4C17.3169 28.4373 17.3356 28.512 17.3356 28.624C17.3356 28.704 17.3196 28.7787 17.2876 28.848C17.2609 28.9173 17.2102 28.9627 17.1356 28.984C17.0716 29.0053 16.9836 29.024 16.8716 29.04C16.7649 29.0613 16.6689 29.072 16.5836 29.072Z" fill="#747488"/>
</svg>
