<svg width="155" height="146" viewBox="0 0 155 146" fill="none" xmlns="http://www.w3.org/2000/svg">
<path d="M60.9296 19.344L105.833 19.344L150 100.033L104.167 100.033L60.9296 19.344Z" fill="url(#paint0_linear_203_15)"/>
<path d="M60.9296 19.344L105.833 19.344L150 100.033L104.167 100.033L60.9296 19.344Z" fill="url(#paint1_linear_203_15)"/>
<path d="M81.2574 59.6078L31.5981 59.5357L12.1197 98.8304L39.0642 142.904L81.2574 59.6078Z" fill="url(#paint2_linear_203_15)"/>
<path d="M81.2574 59.6078L31.5981 59.5357L12.1197 98.8304L39.0642 142.904L81.2574 59.6078Z" fill="url(#paint3_linear_203_15)"/>
<path d="M126.04 142.503L103.58 98.307L61.3889 98.307L39.1667 142.503L126.04 142.503Z" fill="#D9D9D9"/>
<path d="M126.04 142.503L103.58 98.307L61.3889 98.307L39.1667 142.503L126.04 142.503Z" fill="#D9D9D9"/>
<defs>
<linearGradient id="paint0_linear_203_15" x1="105.556" y1="66.4926" x2="53.2433" y2="-56.1054" gradientUnits="userSpaceOnUse">
<stop stop-color="#DA0175"/>
<stop offset="1" stop-color="#F0F0F6"/>
</linearGradient>
<linearGradient id="paint1_linear_203_15" x1="105.556" y1="66.4926" x2="53.2433" y2="-56.1054" gradientUnits="userSpaceOnUse">
<stop stop-color="#DA0175"/>
<stop offset="1" stop-color="#F0F0F6"/>
</linearGradient>
<linearGradient id="paint2_linear_203_15" x1="63.6111" y1="14.3809" x2="47.8416" y2="85.6329" gradientUnits="userSpaceOnUse">
<stop stop-color="#F0F0F5"/>
<stop offset="1" stop-color="#DA0175"/>
</linearGradient>
<linearGradient id="paint3_linear_203_15" x1="63.6111" y1="14.3809" x2="47.8416" y2="85.6329" gradientUnits="userSpaceOnUse">
<stop stop-color="#F0F0F5"/>
<stop offset="1" stop-color="#DA0175"/>
</linearGradient>
</defs>
</svg>
