<svg width="29" height="32" viewBox="0 0 29 32" fill="none" xmlns="http://www.w3.org/2000/svg">
<g clip-path="url(#clip0_203_10)">
<mask id="mask0_203_10" style="mask-type:luminance" maskUnits="userSpaceOnUse" x="5" y="0" width="21" height="17">
<path d="M25.36 0.548828H5.64V16.5488H25.36V0.548828Z" fill="white"/>
</mask>
<g mask="url(#mask0_203_10)">
<path d="M8.83 4.29883L9.80573 13.9721C9.90998 15.0056 10.9136 15.7988 12.117 15.7988H17.723C18.9264 15.7988 19.93 15.0056 20.0342 13.9721L21.01 4.29883" stroke="#AE1100" stroke-width="1.5" stroke-linecap="round" stroke-linejoin="round"/>
<path d="M12.31 4.04883V3.29883C12.31 2.19426 13.3487 1.29883 14.63 1.29883H15.21C16.4913 1.29883 17.53 2.19426 17.53 3.29883V4.04883" stroke="#AE1100" stroke-width="1.5" stroke-linecap="round" stroke-linejoin="round"/>
<path d="M6.8 4.29883H23.04" stroke="#AE1100" stroke-width="1.5" stroke-linecap="round" stroke-linejoin="round"/>
</g>
<path d="M1.072 28.056C0.938667 28.056 0.834667 28.0187 0.76 27.944C0.690667 27.8693 0.656 27.7653 0.656 27.632V22.784C0.656 22.6453 0.693333 22.5413 0.768 22.472C0.842667 22.3973 0.946667 22.36 1.08 22.36H2.992C3.6 22.36 4.06933 22.504 4.4 22.792C4.73067 23.08 4.896 23.488 4.896 24.016C4.896 24.3573 4.82133 24.6507 4.672 24.896C4.52267 25.1413 4.304 25.328 4.016 25.456C3.73333 25.584 3.392 25.648 2.992 25.648L3.064 25.536H3.272C3.48533 25.536 3.66933 25.5893 3.824 25.696C3.984 25.8027 4.128 25.9733 4.256 26.208L4.944 27.488C4.99733 27.584 5.02133 27.6773 5.016 27.768C5.016 27.8533 4.984 27.9227 4.92 27.976C4.86133 28.0293 4.776 28.056 4.664 28.056C4.54667 28.056 4.45067 28.032 4.376 27.984C4.30667 27.9307 4.24267 27.8533 4.184 27.752L3.344 26.2C3.232 25.992 3.104 25.8533 2.96 25.784C2.816 25.7093 2.62667 25.672 2.392 25.672H1.488V27.632C1.488 27.7653 1.45333 27.8693 1.384 27.944C1.31467 28.0187 1.21067 28.056 1.072 28.056ZM1.488 25.048H2.856C3.26133 25.048 3.568 24.9627 3.776 24.792C3.984 24.6213 4.088 24.368 4.088 24.032C4.088 23.7013 3.984 23.4507 3.776 23.28C3.568 23.1093 3.26133 23.024 2.856 23.024H1.488V25.048ZM7.72031 28.072C7.29365 28.072 6.92565 27.992 6.61631 27.832C6.31231 27.6667 6.07498 27.4347 5.90431 27.136C5.73898 26.832 5.65631 26.472 5.65631 26.056C5.65631 25.6507 5.73898 25.296 5.90431 24.992C6.06965 24.688 6.29631 24.4507 6.58431 24.28C6.87231 24.1093 7.20031 24.024 7.56831 24.024C7.84031 24.024 8.08298 24.0693 8.29631 24.16C8.50965 24.2453 8.69098 24.3733 8.84031 24.544C8.99498 24.7093 9.10965 24.912 9.18431 25.152C9.26431 25.392 9.30431 25.6613 9.30431 25.96C9.30431 26.0507 9.27765 26.12 9.22431 26.168C9.17098 26.2107 9.09098 26.232 8.98431 26.232H6.29631V25.736H8.76031L8.62431 25.848C8.62431 25.5813 8.58431 25.3547 8.50431 25.168C8.42965 24.9813 8.31498 24.84 8.16031 24.744C8.01098 24.6427 7.82431 24.592 7.60031 24.592C7.34965 24.592 7.13631 24.6507 6.96031 24.768C6.78965 24.8853 6.65898 25.048 6.56831 25.256C6.47765 25.464 6.43231 25.7067 6.43231 25.984V26.032C6.43231 26.5013 6.54165 26.856 6.76031 27.096C6.98431 27.3307 7.30698 27.448 7.72831 27.448C7.88831 27.448 8.05631 27.4267 8.23231 27.384C8.41365 27.3413 8.58431 27.2693 8.74431 27.168C8.83498 27.1147 8.91498 27.0907 8.98431 27.096C9.05898 27.1013 9.11765 27.1253 9.16031 27.168C9.20831 27.2107 9.23765 27.264 9.24831 27.328C9.25898 27.392 9.24831 27.4587 9.21631 27.528C9.18431 27.592 9.12831 27.6507 9.04831 27.704C8.86698 27.8267 8.65631 27.92 8.41631 27.984C8.17631 28.0427 7.94431 28.072 7.72031 28.072ZM10.6012 28.056C10.4732 28.056 10.3745 28.0213 10.3052 27.952C10.2359 27.8773 10.2012 27.776 10.2012 27.648V24.448C10.2012 24.3147 10.2359 24.2133 10.3052 24.144C10.3745 24.0747 10.4705 24.04 10.5932 24.04C10.7212 24.04 10.8172 24.0747 10.8812 24.144C10.9505 24.2133 10.9852 24.3147 10.9852 24.448V25.104L10.8972 24.928C11.0039 24.6453 11.1692 24.424 11.3932 24.264C11.6172 24.104 11.8865 24.024 12.2012 24.024C12.5265 24.024 12.7905 24.1013 12.9932 24.256C13.1959 24.4107 13.3345 24.648 13.4092 24.968H13.2972C13.3985 24.6747 13.5719 24.4453 13.8172 24.28C14.0625 24.1093 14.3479 24.024 14.6732 24.024C14.9719 24.024 15.2172 24.0827 15.4092 24.2C15.6012 24.312 15.7452 24.4853 15.8412 24.72C15.9372 24.9493 15.9852 25.24 15.9852 25.592V27.648C15.9852 27.776 15.9479 27.8773 15.8732 27.952C15.8039 28.0213 15.7052 28.056 15.5772 28.056C15.4492 28.056 15.3505 28.0213 15.2812 27.952C15.2119 27.8773 15.1772 27.776 15.1772 27.648V25.632C15.1772 25.3013 15.1185 25.0587 15.0012 24.904C14.8892 24.7493 14.7025 24.672 14.4412 24.672C14.1479 24.672 13.9159 24.7733 13.7452 24.976C13.5745 25.1787 13.4892 25.4587 13.4892 25.816V27.648C13.4892 27.776 13.4545 27.8773 13.3852 27.952C13.3159 28.0213 13.2172 28.056 13.0892 28.056C12.9612 28.056 12.8599 28.0213 12.7852 27.952C12.7159 27.8773 12.6812 27.776 12.6812 27.648V25.632C12.6812 25.3013 12.6252 25.0587 12.5132 24.904C12.4012 24.7493 12.2145 24.672 11.9532 24.672C11.6599 24.672 11.4279 24.7733 11.2572 24.976C11.0919 25.1787 11.0092 25.4587 11.0092 25.816V27.648C11.0092 27.92 10.8732 28.056 10.6012 28.056ZM18.8109 28.072C18.4162 28.072 18.0749 27.9893 17.7869 27.824C17.5042 27.6587 17.2829 27.424 17.1229 27.12C16.9629 26.816 16.8829 26.4587 16.8829 26.048C16.8829 25.7333 16.9282 25.4533 17.0189 25.208C17.1095 24.9627 17.2375 24.752 17.4029 24.576C17.5735 24.3947 17.7762 24.2587 18.0109 24.168C18.2509 24.072 18.5175 24.024 18.8109 24.024C19.2002 24.024 19.5362 24.1067 19.8189 24.272C20.1069 24.4373 20.3309 24.672 20.4909 24.976C20.6509 25.2747 20.7309 25.632 20.7309 26.048C20.7309 26.3573 20.6855 26.6373 20.5949 26.888C20.5042 27.1387 20.3735 27.352 20.2029 27.528C20.0375 27.704 19.8349 27.84 19.5949 27.936C19.3602 28.0267 19.0989 28.072 18.8109 28.072ZM18.8109 27.448C19.0295 27.448 19.2215 27.3947 19.3869 27.288C19.5522 27.1813 19.6802 27.024 19.7709 26.816C19.8669 26.608 19.9149 26.352 19.9149 26.048C19.9149 25.5893 19.8135 25.2427 19.6109 25.008C19.4082 24.7733 19.1415 24.656 18.8109 24.656C18.5869 24.656 18.3922 24.7093 18.2269 24.816C18.0615 24.9173 17.9309 25.072 17.8349 25.28C17.7442 25.488 17.6989 25.744 17.6989 26.048C17.6989 26.5013 17.8002 26.848 18.0029 27.088C18.2055 27.328 18.4749 27.448 18.8109 27.448ZM23.08 28.056C22.968 28.056 22.8693 28.0267 22.784 27.968C22.704 27.9093 22.6373 27.8187 22.584 27.696L21.248 24.592C21.2053 24.496 21.1893 24.4053 21.2 24.32C21.2107 24.2347 21.2507 24.168 21.32 24.12C21.3893 24.0667 21.4827 24.04 21.6 24.04C21.7013 24.04 21.7813 24.064 21.84 24.112C21.8987 24.16 21.952 24.2427 22 24.36L23.208 27.336H22.984L24.216 24.36C24.264 24.2427 24.3173 24.16 24.376 24.112C24.44 24.064 24.528 24.04 24.64 24.04C24.736 24.04 24.8107 24.0667 24.864 24.12C24.9227 24.168 24.9573 24.2347 24.968 24.32C24.984 24.4 24.9707 24.488 24.928 24.584L23.576 27.696C23.528 27.8187 23.4613 27.9093 23.376 27.968C23.2907 28.0267 23.192 28.056 23.08 28.056ZM27.4859 28.072C27.0593 28.072 26.6913 27.992 26.3819 27.832C26.0779 27.6667 25.8406 27.4347 25.6699 27.136C25.5046 26.832 25.4219 26.472 25.4219 26.056C25.4219 25.6507 25.5046 25.296 25.6699 24.992C25.8353 24.688 26.0619 24.4507 26.3499 24.28C26.6379 24.1093 26.9659 24.024 27.3339 24.024C27.6059 24.024 27.8486 24.0693 28.0619 24.16C28.2753 24.2453 28.4566 24.3733 28.6059 24.544C28.7606 24.7093 28.8753 24.912 28.9499 25.152C29.0299 25.392 29.0699 25.6613 29.0699 25.96C29.0699 26.0507 29.0433 26.12 28.9899 26.168C28.9366 26.2107 28.8566 26.232 28.7499 26.232H26.0619V25.736H28.5259L28.3899 25.848C28.3899 25.5813 28.3499 25.3547 28.2699 25.168C28.1953 24.9813 28.0806 24.84 27.9259 24.744C27.7766 24.6427 27.5899 24.592 27.3659 24.592C27.1153 24.592 26.9019 24.6507 26.7259 24.768C26.5553 24.8853 26.4246 25.048 26.3339 25.256C26.2433 25.464 26.1979 25.7067 26.1979 25.984V26.032C26.1979 26.5013 26.3073 26.856 26.5259 27.096C26.7499 27.3307 27.0726 27.448 27.4939 27.448C27.6539 27.448 27.8219 27.4267 27.9979 27.384C28.1793 27.3413 28.3499 27.2693 28.5099 27.168C28.6006 27.1147 28.6806 27.0907 28.7499 27.096C28.8246 27.1013 28.8833 27.1253 28.9259 27.168C28.9739 27.2107 29.0033 27.264 29.0139 27.328C29.0246 27.392 29.0139 27.4587 28.9819 27.528C28.9499 27.592 28.8939 27.6507 28.8139 27.704C28.6326 27.8267 28.4219 27.92 28.1819 27.984C27.9419 28.0427 27.7099 28.072 27.4859 28.072Z" fill="#AE1100"/>
</g>
<defs>
<clipPath id="clip0_203_10">
<rect width="29" height="32" fill="white"/>
</clipPath>
</defs>
</svg>
